<mxfile host="app.diagrams.net" modified="2023-07-13T23:04:15.266Z" agent="Mozilla/5.0 (Macintosh; Intel Mac OS X 10_15_7) AppleWebKit/537.36 (KHTML, like Gecko) Chrome/114.0.0.0 Safari/537.36" etag="ls3FE91sw4o6Ggx34auA" version="21.3.2" type="github">
  <diagram name="第 1 页" id="u1X428pxKuI0TXr2MTLI">
    <mxGraphModel dx="1178" dy="524" grid="1" gridSize="10" guides="1" tooltips="1" connect="1" arrows="1" fold="1" page="1" pageScale="1" pageWidth="827" pageHeight="1169" math="0" shadow="0">
      <root>
        <mxCell id="0" />
        <mxCell id="1" parent="0" />
        <mxCell id="jZZ9_Ah8eDASX3XH4iqS-14" value="" style="shape=table;startSize=0;container=1;collapsible=0;childLayout=tableLayout;" vertex="1" parent="1">
          <mxGeometry x="180" y="350" width="300" height="200" as="geometry" />
        </mxCell>
        <mxCell id="jZZ9_Ah8eDASX3XH4iqS-15" value="" style="shape=tableRow;horizontal=0;startSize=0;swimlaneHead=0;swimlaneBody=0;strokeColor=inherit;top=0;left=0;bottom=0;right=0;collapsible=0;dropTarget=0;fillColor=none;points=[[0,0.5],[1,0.5]];portConstraint=eastwest;" vertex="1" parent="jZZ9_Ah8eDASX3XH4iqS-14">
          <mxGeometry width="300" height="40" as="geometry" />
        </mxCell>
        <mxCell id="jZZ9_Ah8eDASX3XH4iqS-16" value="&lt;b style=&quot;border-color: var(--border-color); font-size: 13px;&quot;&gt;arr[0][0]&lt;/b&gt;" style="shape=partialRectangle;html=1;whiteSpace=wrap;connectable=0;strokeColor=#6c8ebf;overflow=hidden;fillColor=#dae8fc;top=0;left=0;bottom=0;right=0;pointerEvents=1;fontSize=13;fontStyle=1" vertex="1" parent="jZZ9_Ah8eDASX3XH4iqS-15">
          <mxGeometry width="60" height="40" as="geometry">
            <mxRectangle width="60" height="40" as="alternateBounds" />
          </mxGeometry>
        </mxCell>
        <mxCell id="jZZ9_Ah8eDASX3XH4iqS-17" value="&lt;b style=&quot;border-color: var(--border-color);&quot;&gt;arr[0][1]&lt;/b&gt;" style="shape=partialRectangle;html=1;whiteSpace=wrap;connectable=0;strokeColor=#6c8ebf;overflow=hidden;fillColor=#dae8fc;top=0;left=0;bottom=0;right=0;pointerEvents=1;fontSize=13;fontStyle=1" vertex="1" parent="jZZ9_Ah8eDASX3XH4iqS-15">
          <mxGeometry x="60" width="60" height="40" as="geometry">
            <mxRectangle width="60" height="40" as="alternateBounds" />
          </mxGeometry>
        </mxCell>
        <mxCell id="jZZ9_Ah8eDASX3XH4iqS-18" value="&lt;b style=&quot;border-color: var(--border-color);&quot;&gt;arr[0][2]&lt;/b&gt;" style="shape=partialRectangle;html=1;whiteSpace=wrap;connectable=0;strokeColor=#6c8ebf;overflow=hidden;fillColor=#dae8fc;top=0;left=0;bottom=0;right=0;pointerEvents=1;fontSize=13;fontStyle=1" vertex="1" parent="jZZ9_Ah8eDASX3XH4iqS-15">
          <mxGeometry x="120" width="60" height="40" as="geometry">
            <mxRectangle width="60" height="40" as="alternateBounds" />
          </mxGeometry>
        </mxCell>
        <mxCell id="jZZ9_Ah8eDASX3XH4iqS-19" value="&lt;b style=&quot;border-color: var(--border-color);&quot;&gt;arr[0][3]&lt;/b&gt;" style="shape=partialRectangle;html=1;whiteSpace=wrap;connectable=0;strokeColor=#6c8ebf;overflow=hidden;fillColor=#dae8fc;top=0;left=0;bottom=0;right=0;pointerEvents=1;fontSize=13;fontStyle=1" vertex="1" parent="jZZ9_Ah8eDASX3XH4iqS-15">
          <mxGeometry x="180" width="60" height="40" as="geometry">
            <mxRectangle width="60" height="40" as="alternateBounds" />
          </mxGeometry>
        </mxCell>
        <mxCell id="jZZ9_Ah8eDASX3XH4iqS-20" value="&lt;b style=&quot;border-color: var(--border-color);&quot;&gt;arr[0][4]&lt;/b&gt;" style="shape=partialRectangle;html=1;whiteSpace=wrap;connectable=0;strokeColor=#6c8ebf;overflow=hidden;fillColor=#dae8fc;top=0;left=0;bottom=0;right=0;pointerEvents=1;fontSize=13;fontStyle=1" vertex="1" parent="jZZ9_Ah8eDASX3XH4iqS-15">
          <mxGeometry x="240" width="60" height="40" as="geometry">
            <mxRectangle width="60" height="40" as="alternateBounds" />
          </mxGeometry>
        </mxCell>
        <mxCell id="jZZ9_Ah8eDASX3XH4iqS-21" value="" style="shape=tableRow;horizontal=0;startSize=0;swimlaneHead=0;swimlaneBody=0;strokeColor=inherit;top=0;left=0;bottom=0;right=0;collapsible=0;dropTarget=0;fillColor=none;points=[[0,0.5],[1,0.5]];portConstraint=eastwest;" vertex="1" parent="jZZ9_Ah8eDASX3XH4iqS-14">
          <mxGeometry y="40" width="300" height="40" as="geometry" />
        </mxCell>
        <mxCell id="jZZ9_Ah8eDASX3XH4iqS-22" value="&lt;b style=&quot;border-color: var(--border-color);&quot;&gt;arr[1][0]&lt;/b&gt;" style="shape=partialRectangle;html=1;whiteSpace=wrap;connectable=0;strokeColor=#82b366;overflow=hidden;fillColor=#d5e8d4;top=0;left=0;bottom=0;right=0;pointerEvents=1;fontSize=13;fontStyle=1" vertex="1" parent="jZZ9_Ah8eDASX3XH4iqS-21">
          <mxGeometry width="60" height="40" as="geometry">
            <mxRectangle width="60" height="40" as="alternateBounds" />
          </mxGeometry>
        </mxCell>
        <mxCell id="jZZ9_Ah8eDASX3XH4iqS-23" value="&lt;b style=&quot;border-color: var(--border-color);&quot;&gt;arr[1][1]&lt;/b&gt;" style="shape=partialRectangle;html=1;whiteSpace=wrap;connectable=0;strokeColor=#82b366;overflow=hidden;fillColor=#d5e8d4;top=0;left=0;bottom=0;right=0;pointerEvents=1;fontSize=13;fontStyle=1" vertex="1" parent="jZZ9_Ah8eDASX3XH4iqS-21">
          <mxGeometry x="60" width="60" height="40" as="geometry">
            <mxRectangle width="60" height="40" as="alternateBounds" />
          </mxGeometry>
        </mxCell>
        <mxCell id="jZZ9_Ah8eDASX3XH4iqS-24" value="&lt;b style=&quot;border-color: var(--border-color);&quot;&gt;arr[1][2]&lt;/b&gt;" style="shape=partialRectangle;html=1;whiteSpace=wrap;connectable=0;strokeColor=#82b366;overflow=hidden;fillColor=#d5e8d4;top=0;left=0;bottom=0;right=0;pointerEvents=1;fontSize=13;fontStyle=1" vertex="1" parent="jZZ9_Ah8eDASX3XH4iqS-21">
          <mxGeometry x="120" width="60" height="40" as="geometry">
            <mxRectangle width="60" height="40" as="alternateBounds" />
          </mxGeometry>
        </mxCell>
        <mxCell id="jZZ9_Ah8eDASX3XH4iqS-25" value="&lt;b style=&quot;border-color: var(--border-color);&quot;&gt;arr[1][3]&lt;/b&gt;" style="shape=partialRectangle;html=1;whiteSpace=wrap;connectable=0;strokeColor=#82b366;overflow=hidden;fillColor=#d5e8d4;top=0;left=0;bottom=0;right=0;pointerEvents=1;fontSize=13;fontStyle=1" vertex="1" parent="jZZ9_Ah8eDASX3XH4iqS-21">
          <mxGeometry x="180" width="60" height="40" as="geometry">
            <mxRectangle width="60" height="40" as="alternateBounds" />
          </mxGeometry>
        </mxCell>
        <mxCell id="jZZ9_Ah8eDASX3XH4iqS-26" value="&lt;b style=&quot;border-color: var(--border-color);&quot;&gt;arr[1][4]&lt;/b&gt;" style="shape=partialRectangle;html=1;whiteSpace=wrap;connectable=0;strokeColor=#82b366;overflow=hidden;fillColor=#d5e8d4;top=0;left=0;bottom=0;right=0;pointerEvents=1;fontSize=13;fontStyle=1" vertex="1" parent="jZZ9_Ah8eDASX3XH4iqS-21">
          <mxGeometry x="240" width="60" height="40" as="geometry">
            <mxRectangle width="60" height="40" as="alternateBounds" />
          </mxGeometry>
        </mxCell>
        <mxCell id="jZZ9_Ah8eDASX3XH4iqS-27" value="" style="shape=tableRow;horizontal=0;startSize=0;swimlaneHead=0;swimlaneBody=0;strokeColor=inherit;top=0;left=0;bottom=0;right=0;collapsible=0;dropTarget=0;fillColor=none;points=[[0,0.5],[1,0.5]];portConstraint=eastwest;" vertex="1" parent="jZZ9_Ah8eDASX3XH4iqS-14">
          <mxGeometry y="80" width="300" height="40" as="geometry" />
        </mxCell>
        <mxCell id="jZZ9_Ah8eDASX3XH4iqS-28" value="&lt;b style=&quot;border-color: var(--border-color);&quot;&gt;arr[2][0]&lt;/b&gt;" style="shape=partialRectangle;html=1;whiteSpace=wrap;connectable=0;strokeColor=#b85450;overflow=hidden;fillColor=#f8cecc;top=0;left=0;bottom=0;right=0;pointerEvents=1;fontSize=13;fontStyle=1" vertex="1" parent="jZZ9_Ah8eDASX3XH4iqS-27">
          <mxGeometry width="60" height="40" as="geometry">
            <mxRectangle width="60" height="40" as="alternateBounds" />
          </mxGeometry>
        </mxCell>
        <mxCell id="jZZ9_Ah8eDASX3XH4iqS-29" value="&lt;b style=&quot;border-color: var(--border-color);&quot;&gt;arr[2][1]&lt;/b&gt;" style="shape=partialRectangle;html=1;whiteSpace=wrap;connectable=0;strokeColor=#b85450;overflow=hidden;fillColor=#f8cecc;top=0;left=0;bottom=0;right=0;pointerEvents=1;fontSize=13;fontStyle=1" vertex="1" parent="jZZ9_Ah8eDASX3XH4iqS-27">
          <mxGeometry x="60" width="60" height="40" as="geometry">
            <mxRectangle width="60" height="40" as="alternateBounds" />
          </mxGeometry>
        </mxCell>
        <mxCell id="jZZ9_Ah8eDASX3XH4iqS-30" value="&lt;b style=&quot;border-color: var(--border-color);&quot;&gt;arr[2][2]&lt;/b&gt;" style="shape=partialRectangle;html=1;whiteSpace=wrap;connectable=0;strokeColor=#b85450;overflow=hidden;fillColor=#f8cecc;top=0;left=0;bottom=0;right=0;pointerEvents=1;fontSize=13;fontStyle=1" vertex="1" parent="jZZ9_Ah8eDASX3XH4iqS-27">
          <mxGeometry x="120" width="60" height="40" as="geometry">
            <mxRectangle width="60" height="40" as="alternateBounds" />
          </mxGeometry>
        </mxCell>
        <mxCell id="jZZ9_Ah8eDASX3XH4iqS-31" value="&lt;b style=&quot;border-color: var(--border-color);&quot;&gt;arr[2][3]&lt;/b&gt;" style="shape=partialRectangle;html=1;whiteSpace=wrap;connectable=0;strokeColor=#b85450;overflow=hidden;fillColor=#f8cecc;top=0;left=0;bottom=0;right=0;pointerEvents=1;fontSize=13;fontStyle=1" vertex="1" parent="jZZ9_Ah8eDASX3XH4iqS-27">
          <mxGeometry x="180" width="60" height="40" as="geometry">
            <mxRectangle width="60" height="40" as="alternateBounds" />
          </mxGeometry>
        </mxCell>
        <mxCell id="jZZ9_Ah8eDASX3XH4iqS-32" value="&lt;b style=&quot;border-color: var(--border-color);&quot;&gt;arr[2][4]&lt;/b&gt;" style="shape=partialRectangle;html=1;whiteSpace=wrap;connectable=0;strokeColor=#b85450;overflow=hidden;fillColor=#f8cecc;top=0;left=0;bottom=0;right=0;pointerEvents=1;fontSize=13;fontStyle=1" vertex="1" parent="jZZ9_Ah8eDASX3XH4iqS-27">
          <mxGeometry x="240" width="60" height="40" as="geometry">
            <mxRectangle width="60" height="40" as="alternateBounds" />
          </mxGeometry>
        </mxCell>
        <mxCell id="jZZ9_Ah8eDASX3XH4iqS-33" value="" style="shape=tableRow;horizontal=0;startSize=0;swimlaneHead=0;swimlaneBody=0;strokeColor=inherit;top=0;left=0;bottom=0;right=0;collapsible=0;dropTarget=0;fillColor=none;points=[[0,0.5],[1,0.5]];portConstraint=eastwest;" vertex="1" parent="jZZ9_Ah8eDASX3XH4iqS-14">
          <mxGeometry y="120" width="300" height="40" as="geometry" />
        </mxCell>
        <mxCell id="jZZ9_Ah8eDASX3XH4iqS-34" value="&lt;b style=&quot;border-color: var(--border-color);&quot;&gt;arr[3][0]&lt;/b&gt;" style="shape=partialRectangle;html=1;whiteSpace=wrap;connectable=0;strokeColor=#9673a6;overflow=hidden;fillColor=#e1d5e7;top=0;left=0;bottom=0;right=0;pointerEvents=1;fontSize=13;fontStyle=1" vertex="1" parent="jZZ9_Ah8eDASX3XH4iqS-33">
          <mxGeometry width="60" height="40" as="geometry">
            <mxRectangle width="60" height="40" as="alternateBounds" />
          </mxGeometry>
        </mxCell>
        <mxCell id="jZZ9_Ah8eDASX3XH4iqS-35" value="&lt;b style=&quot;border-color: var(--border-color);&quot;&gt;arr[3][1]&lt;/b&gt;" style="shape=partialRectangle;html=1;whiteSpace=wrap;connectable=0;strokeColor=#9673a6;overflow=hidden;fillColor=#e1d5e7;top=0;left=0;bottom=0;right=0;pointerEvents=1;fontSize=13;fontStyle=1" vertex="1" parent="jZZ9_Ah8eDASX3XH4iqS-33">
          <mxGeometry x="60" width="60" height="40" as="geometry">
            <mxRectangle width="60" height="40" as="alternateBounds" />
          </mxGeometry>
        </mxCell>
        <mxCell id="jZZ9_Ah8eDASX3XH4iqS-36" value="&lt;b style=&quot;border-color: var(--border-color);&quot;&gt;arr[3][2]&lt;/b&gt;" style="shape=partialRectangle;html=1;whiteSpace=wrap;connectable=0;strokeColor=#9673a6;overflow=hidden;fillColor=#e1d5e7;top=0;left=0;bottom=0;right=0;pointerEvents=1;fontSize=13;fontStyle=1" vertex="1" parent="jZZ9_Ah8eDASX3XH4iqS-33">
          <mxGeometry x="120" width="60" height="40" as="geometry">
            <mxRectangle width="60" height="40" as="alternateBounds" />
          </mxGeometry>
        </mxCell>
        <mxCell id="jZZ9_Ah8eDASX3XH4iqS-37" value="&lt;b style=&quot;border-color: var(--border-color);&quot;&gt;arr[3][3]&lt;/b&gt;" style="shape=partialRectangle;html=1;whiteSpace=wrap;connectable=0;strokeColor=#9673a6;overflow=hidden;fillColor=#e1d5e7;top=0;left=0;bottom=0;right=0;pointerEvents=1;fontSize=13;fontStyle=1" vertex="1" parent="jZZ9_Ah8eDASX3XH4iqS-33">
          <mxGeometry x="180" width="60" height="40" as="geometry">
            <mxRectangle width="60" height="40" as="alternateBounds" />
          </mxGeometry>
        </mxCell>
        <mxCell id="jZZ9_Ah8eDASX3XH4iqS-38" value="&lt;b style=&quot;border-color: var(--border-color);&quot;&gt;arr[3][4]&lt;/b&gt;" style="shape=partialRectangle;html=1;whiteSpace=wrap;connectable=0;strokeColor=#9673a6;overflow=hidden;fillColor=#e1d5e7;top=0;left=0;bottom=0;right=0;pointerEvents=1;fontSize=13;fontStyle=1" vertex="1" parent="jZZ9_Ah8eDASX3XH4iqS-33">
          <mxGeometry x="240" width="60" height="40" as="geometry">
            <mxRectangle width="60" height="40" as="alternateBounds" />
          </mxGeometry>
        </mxCell>
        <mxCell id="jZZ9_Ah8eDASX3XH4iqS-39" value="" style="shape=tableRow;horizontal=0;startSize=0;swimlaneHead=0;swimlaneBody=0;strokeColor=inherit;top=0;left=0;bottom=0;right=0;collapsible=0;dropTarget=0;fillColor=none;points=[[0,0.5],[1,0.5]];portConstraint=eastwest;" vertex="1" parent="jZZ9_Ah8eDASX3XH4iqS-14">
          <mxGeometry y="160" width="300" height="40" as="geometry" />
        </mxCell>
        <mxCell id="jZZ9_Ah8eDASX3XH4iqS-40" value="&lt;b style=&quot;border-color: var(--border-color);&quot;&gt;arr[4][0]&lt;/b&gt;" style="shape=partialRectangle;html=1;whiteSpace=wrap;connectable=0;strokeColor=#d6b656;overflow=hidden;fillColor=#fff2cc;top=0;left=0;bottom=0;right=0;pointerEvents=1;fontSize=13;fontStyle=1" vertex="1" parent="jZZ9_Ah8eDASX3XH4iqS-39">
          <mxGeometry width="60" height="40" as="geometry">
            <mxRectangle width="60" height="40" as="alternateBounds" />
          </mxGeometry>
        </mxCell>
        <mxCell id="jZZ9_Ah8eDASX3XH4iqS-41" value="&lt;b style=&quot;border-color: var(--border-color);&quot;&gt;arr[4][1]&lt;/b&gt;" style="shape=partialRectangle;html=1;whiteSpace=wrap;connectable=0;strokeColor=#d6b656;overflow=hidden;fillColor=#fff2cc;top=0;left=0;bottom=0;right=0;pointerEvents=1;fontSize=13;fontStyle=1" vertex="1" parent="jZZ9_Ah8eDASX3XH4iqS-39">
          <mxGeometry x="60" width="60" height="40" as="geometry">
            <mxRectangle width="60" height="40" as="alternateBounds" />
          </mxGeometry>
        </mxCell>
        <mxCell id="jZZ9_Ah8eDASX3XH4iqS-42" value="&lt;b style=&quot;border-color: var(--border-color);&quot;&gt;arr[4][2]&lt;/b&gt;" style="shape=partialRectangle;html=1;whiteSpace=wrap;connectable=0;strokeColor=#d6b656;overflow=hidden;fillColor=#fff2cc;top=0;left=0;bottom=0;right=0;pointerEvents=1;fontSize=13;fontStyle=1" vertex="1" parent="jZZ9_Ah8eDASX3XH4iqS-39">
          <mxGeometry x="120" width="60" height="40" as="geometry">
            <mxRectangle width="60" height="40" as="alternateBounds" />
          </mxGeometry>
        </mxCell>
        <mxCell id="jZZ9_Ah8eDASX3XH4iqS-43" value="&lt;b style=&quot;border-color: var(--border-color);&quot;&gt;arr[4][3]&lt;/b&gt;" style="shape=partialRectangle;html=1;whiteSpace=wrap;connectable=0;strokeColor=#d6b656;overflow=hidden;fillColor=#fff2cc;top=0;left=0;bottom=0;right=0;pointerEvents=1;fontSize=13;fontStyle=1" vertex="1" parent="jZZ9_Ah8eDASX3XH4iqS-39">
          <mxGeometry x="180" width="60" height="40" as="geometry">
            <mxRectangle width="60" height="40" as="alternateBounds" />
          </mxGeometry>
        </mxCell>
        <mxCell id="jZZ9_Ah8eDASX3XH4iqS-44" value="&lt;b style=&quot;border-color: var(--border-color);&quot;&gt;arr[4][4]&lt;/b&gt;" style="shape=partialRectangle;html=1;whiteSpace=wrap;connectable=0;strokeColor=#d6b656;overflow=hidden;fillColor=#fff2cc;top=0;left=0;bottom=0;right=0;pointerEvents=1;fontSize=13;fontStyle=1" vertex="1" parent="jZZ9_Ah8eDASX3XH4iqS-39">
          <mxGeometry x="240" width="60" height="40" as="geometry">
            <mxRectangle width="60" height="40" as="alternateBounds" />
          </mxGeometry>
        </mxCell>
        <mxCell id="jZZ9_Ah8eDASX3XH4iqS-45" value="&lt;font style=&quot;font-size: 17px;&quot;&gt;&lt;b&gt;arr[5][5]&lt;/b&gt;&lt;/font&gt;" style="text;html=1;strokeColor=none;fillColor=none;align=center;verticalAlign=middle;whiteSpace=wrap;rounded=0;" vertex="1" parent="1">
          <mxGeometry x="95" y="300" width="70" height="30" as="geometry" />
        </mxCell>
        <mxCell id="jZZ9_Ah8eDASX3XH4iqS-46" value="&lt;font style=&quot;font-size: 17px;&quot;&gt;&lt;b&gt;arr[0][5]&lt;/b&gt;&lt;/font&gt;" style="text;html=1;strokeColor=none;fillColor=none;align=center;verticalAlign=middle;whiteSpace=wrap;rounded=0;" vertex="1" parent="1">
          <mxGeometry x="95" y="350" width="70" height="30" as="geometry" />
        </mxCell>
        <mxCell id="jZZ9_Ah8eDASX3XH4iqS-47" value="&lt;font style=&quot;font-size: 17px;&quot;&gt;&lt;b&gt;arr[1][5]&lt;/b&gt;&lt;/font&gt;" style="text;html=1;strokeColor=none;fillColor=none;align=center;verticalAlign=middle;whiteSpace=wrap;rounded=0;" vertex="1" parent="1">
          <mxGeometry x="95" y="390" width="70" height="30" as="geometry" />
        </mxCell>
        <mxCell id="jZZ9_Ah8eDASX3XH4iqS-48" value="&lt;font style=&quot;font-size: 17px;&quot;&gt;&lt;b&gt;arr[2][5]&lt;/b&gt;&lt;/font&gt;" style="text;html=1;strokeColor=none;fillColor=none;align=center;verticalAlign=middle;whiteSpace=wrap;rounded=0;" vertex="1" parent="1">
          <mxGeometry x="95" y="430" width="70" height="30" as="geometry" />
        </mxCell>
        <mxCell id="jZZ9_Ah8eDASX3XH4iqS-49" value="&lt;font style=&quot;font-size: 17px;&quot;&gt;&lt;b&gt;arr[3][5]&lt;/b&gt;&lt;/font&gt;" style="text;html=1;strokeColor=none;fillColor=none;align=center;verticalAlign=middle;whiteSpace=wrap;rounded=0;" vertex="1" parent="1">
          <mxGeometry x="95" y="470" width="70" height="30" as="geometry" />
        </mxCell>
        <mxCell id="jZZ9_Ah8eDASX3XH4iqS-50" value="&lt;font style=&quot;font-size: 17px;&quot;&gt;&lt;b&gt;arr[4][5]&lt;/b&gt;&lt;/font&gt;" style="text;html=1;strokeColor=none;fillColor=none;align=center;verticalAlign=middle;whiteSpace=wrap;rounded=0;" vertex="1" parent="1">
          <mxGeometry x="95" y="510" width="70" height="30" as="geometry" />
        </mxCell>
        <mxCell id="jZZ9_Ah8eDASX3XH4iqS-52" value="&lt;font style=&quot;font-size: 17px;&quot;&gt;二维数组&lt;/font&gt;" style="text;html=1;strokeColor=none;fillColor=none;align=center;verticalAlign=middle;whiteSpace=wrap;rounded=0;" vertex="1" parent="1">
          <mxGeometry x="500" y="350" width="70" height="30" as="geometry" />
        </mxCell>
      </root>
    </mxGraphModel>
  </diagram>
</mxfile>
